<?xml version="1.0" standalone="no"?><!DOCTYPE svg PUBLIC "-//W3C//DTD SVG 1.1//EN" "http://www.w3.org/Graphics/SVG/1.1/DTD/svg11.dtd"><svg t="1779375526824" class="icon" viewBox="0 0 1024 1024" version="1.1" xmlns="http://www.w3.org/2000/svg" p-id="5768" xmlns:xlink="http://www.w3.org/1999/xlink" width="200" height="200"><path d="M0 256m64 0l640 0q64 0 64 64l0 640q0 64-64 64l-640 0q-64 0-64-64l0-640q0-64 64-64Z" fill="#D9D9D9" p-id="5769"></path><path d="M256 0h704a64 64 0 0 1 64 64v704.896a63.104 63.104 0 0 1-126.272 0V160a32 32 0 0 0-32-32H256a64 64 0 1 1 0-128z" fill="#D9D9D9" p-id="5770"></path></svg>